<svg width="120" height="120" viewBox="0 0 120 120" fill="none" xmlns="http://www.w3.org/2000/svg">
<path fill-rule="evenodd" clip-rule="evenodd" d="M55.2861 1.95362C56.5362 0.703811 58.2316 0.00170898 59.9994 0.00170898C61.7671 0.00170898 63.4625 0.703811 64.7127 1.95362L104.713 41.9536L118.046 55.287C119.26 56.5443 119.932 58.2283 119.917 59.9763C119.902 61.7243 119.201 63.3964 117.965 64.6324C116.729 65.8685 115.057 66.5696 113.309 66.5848C111.561 66.6 109.877 65.928 108.619 64.7136L106.666 62.7603V106.667C106.666 110.203 105.261 113.595 102.761 116.095C100.26 118.596 96.8689 120 93.3327 120H73.3327C71.5646 120 69.8689 119.298 68.6187 118.048C67.3684 116.797 66.6661 115.102 66.6661 113.334V93.3336H53.3327V113.334C53.3327 115.102 52.6303 116.797 51.3801 118.048C50.1299 119.298 48.4342 120 46.666 120H26.666C23.1298 120 19.7384 118.596 17.238 116.095C14.7375 113.595 13.3327 110.203 13.3327 106.667V62.7603L11.3794 64.7136C10.122 65.928 8.43801 66.6 6.69004 66.5848C4.94206 66.5696 3.26998 65.8685 2.03392 64.6324C0.797867 63.3964 0.0967403 61.7243 0.0815508 59.9763C0.0663614 58.2283 0.738324 56.5443 1.95271 55.287L15.286 41.9536L55.2861 1.95362Z" fill="#796A56"/>
</svg>
