<svg width="16" height="17" viewBox="0 0 16 17" fill="none" xmlns="http://www.w3.org/2000/svg">
<path d="M13.3333 14.7222H2.66667C2.17778 14.7222 1.77778 14.3222 1.77778 13.8333V3.16667C1.77778 2.67778 2.17778 2.27778 2.66667 2.27778H7.11111C7.6 2.27778 8 1.87778 8 1.38889C8 0.9 7.6 0.5 7.11111 0.5H1.77778C1.30628 0.5 0.854097 0.687301 0.520699 1.0207C0.187301 1.3541 0 1.80628 0 2.27778V14.7222C0 15.7 0.8 16.5 1.77778 16.5H14.2222C15.2 16.5 16 15.7 16 14.7222V9.38889C16 8.9 15.6 8.5 15.1111 8.5C14.6222 8.5 14.2222 8.9 14.2222 9.38889V13.8333C14.2222 14.3222 13.8222 14.7222 13.3333 14.7222ZM9.77778 1.38889C9.77778 1.87778 10.1778 2.27778 10.6667 2.27778H12.9689L4.85333 10.3933C4.68713 10.5595 4.59376 10.785 4.59376 11.02C4.59376 11.255 4.68713 11.4805 4.85333 11.6467C5.01954 11.8129 5.24495 11.9062 5.48 11.9062C5.71505 11.9062 5.94046 11.8129 6.10667 11.6467L14.2222 3.53111V5.83333C14.2222 6.32222 14.6222 6.72222 15.1111 6.72222C15.6 6.72222 16 6.32222 16 5.83333V1.38889C16 0.9 15.6 0.5 15.1111 0.5H10.6667C10.1778 0.5 9.77778 0.9 9.77778 1.38889Z" fill="white"/>
</svg>
